<?xml version="1.0" encoding="UTF-8"?>
<svg id="_レイヤー_1" data-name="レイヤー 1" xmlns="http://www.w3.org/2000/svg" viewBox="0 0 400 70">
  <defs>
    <style>
      .cls-1 {
        fill: blue;
      }

      .cls-2 {
        fill: #fff;
      }
    </style>
  </defs>
  <g>
    <path class="cls-2" d="M95.46,52.01c2.35,0,4.25-.26,5.72-.78,2.78-.99,4.17-2.83,4.17-5.52,0-1.57-.69-2.79-2.07-3.65-1.38-.84-3.54-1.58-6.49-2.23l-5.04-1.13c-4.95-1.12-8.38-2.34-10.27-3.65-3.21-2.2-4.81-5.63-4.81-10.31,0-4.26,1.55-7.81,4.65-10.63,3.1-2.82,7.66-4.23,13.67-4.23,5.02,0,9.3,1.33,12.84,3.99,3.54,2.66,5.4,6.52,5.57,11.58h-9.56c-.17-2.86-1.42-4.9-3.75-6.11-1.55-.8-3.48-1.2-5.78-1.2-2.56,0-4.61.52-6.14,1.55-1.53,1.03-2.29,2.48-2.29,4.33,0,1.7.75,2.97,2.26,3.81.97.56,3.04,1.22,6.2,1.97l8.21,1.97c3.6.86,6.31,2.01,8.14,3.46,2.84,2.24,4.26,5.48,4.26,9.72s-1.66,7.96-4.99,10.84c-3.33,2.87-8.03,4.31-14.1,4.31s-11.08-1.42-14.63-4.25c-3.55-2.83-5.33-6.72-5.33-11.68h9.5c.3,2.18.89,3.8,1.78,4.88,1.62,1.96,4.38,2.94,8.3,2.94Z"/>
    <path class="cls-2" d="M132.36,10.98v8.5h-9.34v-8.5h9.34ZM132.36,23.68v35.21h-9.34V23.68h9.34Z"/>
    <path class="cls-2" d="M158.72,52.33v6.88l-4.36.16c-4.35.15-7.32-.6-8.92-2.26-1.03-1.05-1.55-2.68-1.55-4.88v-21.68h-4.91v-6.56h4.91v-9.82h9.11v9.82h5.72v6.56h-5.72v18.61c0,1.44.18,2.34.55,2.7.37.35,1.49.53,3.36.53.28,0,.58,0,.89-.02.31-.01.62-.03.92-.05Z"/>
    <path class="cls-2" d="M196.09,48.55c-.24,2.09-1.32,4.21-3.26,6.36-3.02,3.42-7.24,5.14-12.66,5.14-4.48,0-8.43-1.44-11.86-4.33-3.42-2.89-5.14-7.58-5.14-14.09,0-6.09,1.55-10.77,4.64-14.02,3.09-3.25,7.1-4.88,12.03-4.88,2.93,0,5.57.55,7.91,1.65,2.35,1.1,4.29,2.83,5.81,5.2,1.38,2.09,2.27,4.51,2.68,7.27.24,1.62.33,3.94.29,6.98h-24.1c.13,3.53,1.24,6.01,3.33,7.43,1.27.88,2.8,1.32,4.59,1.32,1.89,0,3.43-.54,4.62-1.62.65-.58,1.22-1.39,1.71-2.42h9.4ZM186.98,37.76c-.15-2.43-.89-4.28-2.21-5.54-1.32-1.26-2.97-1.89-4.93-1.89-2.13,0-3.79.67-4.96,2-1.17,1.34-1.91,3.14-2.21,5.43h14.31Z"/>
    <path class="cls-2" d="M210.23,58.83V11.2h17.4c3.09,0,5.63.35,7.64,1.06,2.01.71,3.59,1.68,4.76,2.91,1.17,1.24,1.98,2.66,2.45,4.27.46,1.61.69,3.3.69,5.06,0,2.65-.54,4.83-1.62,6.55-1.08,1.72-2.48,3.08-4.2,4.07-1.72.99-3.67,1.69-5.85,2.08s-4.38.6-6.58.6h-10.19v21.04h-4.5ZM225.05,33.96c2.12,0,4.01-.13,5.69-.4,1.68-.26,3.1-.76,4.27-1.49,1.17-.73,2.07-1.72,2.71-2.98.64-1.26.96-2.9.96-4.93,0-3-.98-5.27-2.94-6.81-1.96-1.54-5.08-2.32-9.36-2.32h-11.64v18.92h10.32Z"/>
    <path class="cls-2" d="M251.77,58.83h-3.97V24.56h3.97v6.42h.13c1.1-2.73,2.52-4.64,4.27-5.72,1.74-1.08,4.05-1.62,6.91-1.62v4.3c-2.25-.04-4.1.31-5.56,1.06-1.46.75-2.61,1.77-3.47,3.04-.86,1.28-1.46,2.79-1.79,4.53-.33,1.74-.5,3.56-.5,5.46v16.81Z"/>
    <path class="cls-2" d="M271.36,17.08v-5.89h4.37v5.89h-4.37ZM271.56,58.83V24.56h3.97v34.27h-3.97Z"/>
    <path class="cls-2" d="M290.94,58.83h-3.97V24.56h3.97v4.76c1.59-1.68,3.23-3.04,4.93-4.1,1.7-1.06,3.74-1.59,6.12-1.59,2.12,0,4.08.36,5.89,1.09,1.81.73,3.33,2,4.57,3.8.84,1.24,1.33,2.5,1.49,3.8.15,1.3.23,2.66.23,4.07v22.43h-3.97v-22.36c0-3.09-.68-5.4-2.05-6.95-1.37-1.54-3.64-2.32-6.81-2.32-1.24,0-2.36.19-3.37.56-1.01.37-1.93.87-2.75,1.49-.82.62-1.51,1.32-2.08,2.12-.57.79-1.02,1.63-1.32,2.51-.4,1.1-.64,2.16-.73,3.18-.09,1.02-.13,2.12-.13,3.31v18.46Z"/>
    <path class="cls-2" d="M337.12,58.96c-.49.09-1.12.24-1.92.46-.79.22-1.68.33-2.65.33-1.98,0-3.5-.5-4.53-1.49-1.04-.99-1.55-2.77-1.55-5.33v-25.08h-4.83v-3.31h4.83v-9.53h3.97v9.53h6.42v3.31h-6.42v23.49c0,.84.02,1.57.07,2.18.04.62.18,1.12.4,1.52.22.4.56.68,1.03.86.46.18,1.11.26,1.95.26.53,0,1.07-.04,1.62-.13.55-.09,1.09-.2,1.62-.33v3.24Z"/>
    <path class="cls-2" d="M347.24,42.62c0,1.85.24,3.61.73,5.26.48,1.65,1.2,3.09,2.15,4.3.95,1.21,2.15,2.18,3.61,2.91,1.46.73,3.13,1.09,5.03,1.09,2.6,0,4.83-.68,6.68-2.05,1.85-1.37,3.09-3.31,3.71-5.82h4.43c-.49,1.63-1.12,3.14-1.92,4.53-.79,1.39-1.79,2.6-2.98,3.64-1.19,1.04-2.6,1.84-4.23,2.42-1.63.57-3.53.86-5.69.86-2.74,0-5.09-.46-7.08-1.39-1.99-.93-3.62-2.19-4.9-3.8-1.28-1.61-2.23-3.51-2.84-5.69-.62-2.18-.93-4.53-.93-7.05s.36-4.87,1.09-7.08c.73-2.2,1.76-4.14,3.11-5.79,1.35-1.65,2.99-2.95,4.93-3.9,1.94-.95,4.15-1.42,6.62-1.42,4.72,0,8.42,1.62,11.12,4.86,2.69,3.24,4.01,7.95,3.97,14.13h-26.6ZM369.61,39.31c0-1.68-.23-3.25-.69-4.73-.46-1.48-1.15-2.76-2.05-3.84-.9-1.08-2.04-1.94-3.41-2.58-1.37-.64-2.93-.96-4.7-.96s-3.32.33-4.66.99c-1.35.66-2.49,1.54-3.44,2.65-.95,1.1-1.71,2.38-2.28,3.84-.57,1.46-.95,3-1.12,4.63h22.36Z"/>
    <path class="cls-2" d="M387.07,58.83h-3.97V24.56h3.97v6.42h.13c1.1-2.73,2.52-4.64,4.27-5.72,1.74-1.08,4.05-1.62,6.91-1.62v4.3c-2.25-.04-4.1.31-5.56,1.06-1.46.75-2.61,1.77-3.47,3.04-.86,1.28-1.46,2.79-1.79,4.53-.33,1.74-.5,3.56-.5,5.46v16.81Z"/>
  </g>
  <g>
    <rect class="cls-1" y="6.14" width="57.71" height="57.71" rx="7.19" ry="7.19"/>
    <g>
      <rect class="cls-2" x="12.89" y="14.81" width="12.9" height="40.38"/>
      <rect class="cls-2" x="31.93" y="14.81" width="12.9" height="28.49"/>
    </g>
  </g>
</svg>